
        <svg width="1024" height="1024" xmlns="http://www.w3.org/2000/svg">
            <defs>
                <linearGradient id="skyGradient" x1="0%" y1="0%" x2="0%" y2="100%">
                    <stop offset="0%" style="stop-color:#0a0a2e;stop-opacity:1" />
                    <stop offset="50%" style="stop-color:#1a1a3a;stop-opacity:1" />
                    <stop offset="100%" style="stop-color:#2a1a4a;stop-opacity:1" />
                </linearGradient>
                <radialGradient id="moonGlow" cx="80%" cy="20%" r="15%">
                    <stop offset="0%" style="stop-color:#ffffff;stop-opacity:0.8" />
                    <stop offset="100%" style="stop-color:#ffffff;stop-opacity:0" />
                </radialGradient>
            </defs>
            
            <!-- Night Sky -->
            <rect width="1024" height="600" fill="url(#skyGradient)"/>
            
            <!-- Moon -->
            <circle cx="820" cy="150" r="40" fill="#f5f5dc" opacity="0.9"/>
            <ellipse cx="820" cy="150" rx="60" ry="60" fill="url(#moonGlow)"/>
            
            <!-- Stars -->
            <circle cx="200" cy="100" r="2" fill="#ffffff" opacity="0.8"/>
            <circle cx="300" cy="80" r="1.5" fill="#ffffff" opacity="0.6"/>
            <circle cx="500" cy="120" r="1" fill="#ffffff" opacity="0.7"/>
            <circle cx="700" cy="90" r="2" fill="#ffffff" opacity="0.9"/>
            <circle cx="150" cy="180" r="1" fill="#ffffff" opacity="0.5"/>
            
            <!-- City Buildings Silhouette -->
            <rect x="0" y="400" width="150" height="624" fill="#1a1a1a"/>
            <rect x="150" y="350" width="100" height="674" fill="#0f0f0f"/>
            <rect x="250" y="450" width="120" height="574" fill="#1a1a1a"/>
            <rect x="370" y="300" width="80" height="724" fill="#0a0a0a"/>
            <rect x="450" y="380" width="110" height="644" fill="#1a1a1a"/>
            <rect x="560" y="320" width="90" height="704" fill="#0f0f0f"/>
            <rect x="650" y="420" width="100" height="604" fill="#1a1a1a"/>
            <rect x="750" y="360" width="120" height="664" fill="#0a0a0a"/>
            <rect x="870" y="440" width="154" height="584" fill="#1a1a1a"/>
            
            <!-- Building Windows (lit) -->
            <rect x="20" y="450" width="8" height="8" fill="#ffff99" opacity="0.8"/>
            <rect x="40" y="480" width="8" height="8" fill="#ffff99" opacity="0.6"/>
            <rect x="60" y="520" width="8" height="8" fill="#ffff99" opacity="0.7"/>
            <rect x="80" y="460" width="8" height="8" fill="#ffff99" opacity="0.9"/>
            <rect x="100" y="500" width="8" height="8" fill="#ffff99" opacity="0.5"/>
            
            <rect x="170" y="400" width="8" height="8" fill="#ffff99" opacity="0.8"/>
            <rect x="190" y="430" width="8" height="8" fill="#ffff99" opacity="0.7"/>
            <rect x="210" y="460" width="8" height="8" fill="#ffff99" opacity="0.6"/>
            
            <rect x="280" y="500" width="8" height="8" fill="#ffff99" opacity="0.8"/>
            <rect x="300" y="520" width="8" height="8" fill="#ffff99" opacity="0.6"/>
            <rect x="320" y="480" width="8" height="8" fill="#ffff99" opacity="0.7"/>
            
            <rect x="480" y="420" width="8" height="8" fill="#ffff99" opacity="0.9"/>
            <rect x="500" y="450" width="8" height="8" fill="#ffff99" opacity="0.6"/>
            <rect x="520" y="480" width="8" height="8" fill="#ffff99" opacity="0.8"/>
            
            <rect x="680" y="470" width="8" height="8" fill="#ffff99" opacity="0.7"/>
            <rect x="700" y="500" width="8" height="8" fill="#ffff99" opacity="0.5"/>
            <rect x="720" y="460" width="8" height="8" fill="#ffff99" opacity="0.8"/>
            
            <rect x="780" y="410" width="8" height="8" fill="#ffff99" opacity="0.6"/>
            <rect x="800" y="440" width="8" height="8" fill="#ffff99" opacity="0.8"/>
            <rect x="820" y="470" width="8" height="8" fill="#ffff99" opacity="0.7"/>
            
            <!-- Street Lights -->
            <circle cx="100" cy="620" r="3" fill="#ffff99" opacity="0.9"/>
            <line x1="100" y1="620" x2="100" y2="1024" stroke="#333" stroke-width="2"/>
            
            <circle cx="300" cy="620" r="3" fill="#ffff99" opacity="0.9"/>
            <line x1="300" y1="620" x2="300" y2="1024" stroke="#333" stroke-width="2"/>
            
            <circle cx="500" cy="620" r="3" fill="#ffff99" opacity="0.9"/>
            <line x1="500" y1="620" x2="500" y2="1024" stroke="#333" stroke-width="2"/>
            
            <circle cx="700" cy="620" r="3" fill="#ffff99" opacity="0.9"/>
            <line x1="700" y1="620" x2="700" y2="1024" stroke="#333" stroke-width="2"/>
            
            <circle cx="900" cy="620" r="3" fill="#ffff99" opacity="0.9"/>
            <line x1="900" y1="620" x2="900" y2="1024" stroke="#333" stroke-width="2"/>
            
            <!-- Ground/Street -->
            <rect x="0" y="620" width="1024" height="404" fill="#1a1a1a"/>
            
            <!-- Traffic Lights -->
            <rect x="95" y="600" width="10" height="15" fill="#333"/>
            <circle cx="100" cy="605" r="2" fill="#ff4444" opacity="0.8"/>
            
            <rect x="495" y="600" width="10" height="15" fill="#333"/>
            <circle cx="500" cy="605" r="2" fill="#44ff44" opacity="0.8"/>
            
            <!-- Text Label -->
            <text x="512" y="50" text-anchor="middle" fill="#ffffff" font-family="Arial, sans-serif" font-size="24" font-weight="bold" opacity="0.9">PUNE CITY NIGHT</text>
            <text x="512" y="80" text-anchor="middle" fill="#cccccc" font-family="Arial, sans-serif" font-size="14" opacity="0.7">Generated with FLUX Schnell on Mac M1</text>
        </svg>
        